<?xml version="1.0" encoding="UTF-8" standalone="no"?>
<!DOCTYPE svg PUBLIC "-//W3C//DTD SVG 1.1//EN" "http://www.w3.org/Graphics/SVG/1.1/DTD/svg11.dtd">
<svg width="100%" height="100%" viewBox="0 0 24 24" version="1.1" xmlns="http://www.w3.org/2000/svg" xmlns:xlink="http://www.w3.org/1999/xlink" xml:space="preserve" xmlns:serif="http://www.serif.com/" style="fill-rule:evenodd;clip-rule:evenodd;stroke-linejoin:round;stroke-miterlimit:2;">
    <g transform="matrix(1,0,0,1,-30,-128)">
        <g id="Routing-MCP" serif:id="Routing MCP" transform="matrix(0.24,0,0,0.24,29.52,128.24)">
            <rect x="2" y="-1" width="100" height="100" style="fill:none;"/>
            <clipPath id="_clip1">
                <rect x="2" y="-1" width="100" height="100"/>
            </clipPath>
            <g clip-path="url(#_clip1)">
                <g transform="matrix(50,0,0,50,2,-1)">
                    <rect x="0" y="0" width="2" height="2" style="fill:rgb(67,170,139);"/>
                </g>
                <g transform="matrix(-1,0,0,1,104.001917,-1.25149)">
                    <g transform="matrix(0.777758,0,0,0.777758,18.20437,9.881424)">
                        <path d="M42.337,85.007L42.337,72.546L14.913,72.546C14.283,72.546 13.684,72.29 13.246,71.83L4.145,62.307C3.298,61.422 3.296,60.013 4.143,59.121L13.248,49.594C13.686,49.141 14.286,48.884 14.913,48.884L42.337,48.884L42.337,43.972L26.787,43.972C25.507,43.972 24.479,42.94 24.479,41.668L24.479,22.617C24.479,21.345 25.507,20.314 26.787,20.314L42.393,20.314C42.356,20.128 42.337,19.937 42.337,19.741L42.337,16.762C42.337,15.162 43.632,13.861 45.238,13.861C46.838,13.861 48.14,15.162 48.14,16.762L48.14,19.741C48.14,19.937 48.12,20.128 48.083,20.314L71.99,20.314C72.62,20.314 73.226,20.573 73.656,21.026L82.757,30.549C83.613,31.442 83.613,32.843 82.758,33.736L73.658,43.257C73.226,43.712 72.62,43.972 71.99,43.972L48.14,43.972L48.14,48.884L60.12,48.884C61.391,48.884 62.427,49.913 62.427,51.191L62.427,70.238C62.427,71.509 61.391,72.546 60.12,72.546L48.14,72.546L48.14,85.007L64.882,85.007C66.422,85.007 67.672,86.258 67.672,87.798C67.672,89.338 66.422,90.588 64.882,90.588L27.381,90.588C25.841,90.588 24.591,89.338 24.591,87.798C24.591,86.258 25.841,85.007 27.381,85.007L42.337,85.007ZM30.282,26.116L30.282,38.169L70.494,38.169L76.255,32.144L70.494,26.116L30.282,26.116ZM56.621,54.686L16.409,54.686L10.651,60.714L16.409,66.739L56.621,66.739L56.621,54.686ZM13.988,90.588C12.448,90.588 11.197,89.338 11.197,87.798C11.197,86.258 12.448,85.007 13.988,85.007L19.345,85.007C20.885,85.007 22.135,86.258 22.135,87.798C22.135,89.338 20.885,90.588 19.345,90.588L13.988,90.588Z"/>
                    </g>
                    <g transform="matrix(-4.166667,-0,0,-4.166667,102,626.918157)">
                        <path d="M5,142L7,140L15,140L15,144L7,144L5,142" style="fill-opacity:0.4;"/>
                    </g>
                    <g transform="matrix(1,0,0,1,-14.496528,22.586806)">
                        <g transform="matrix(4.166667,0,0,4.166667,6.166667,-531.831843)">
                            <path d="M10,136.521C9.713,136.521 9.479,136.287 9.479,136C9.479,135.713 9.713,135.479 10,135.479L13,135.479C13.287,135.479 13.521,135.713 13.521,136C13.521,136.287 13.287,136.521 13,136.521L10,136.521Z" style="fill-opacity:0.4;"/>
                        </g>
                        <g transform="matrix(1.388889,0,0,4.166667,52.694444,-531.831843)">
                            <path d="M10,136.521C9.138,136.521 8.437,136.287 8.438,136C8.438,135.713 9.138,135.479 10,135.479L13,135.479C13.862,135.479 14.562,135.713 14.562,136C14.563,136.287 13.862,136.521 13,136.521L10,136.521Z" style="fill-opacity:0.4;"/>
                        </g>
                    </g>
                </g>
            </g>
        </g>
        <g id="Colors">
        </g>
    </g>
</svg>
